<svg width="398" height="370" viewBox="0 0 398 370" fill="none" xmlns="http://www.w3.org/2000/svg">
<g clip-path="url(#clip0_219_1088)">
<path d="M397 355.128C397 363.34 308.128 369.992 198.5 369.992C88.8714 369.992 0 363.34 0 355.128C0 346.917 88.8714 340.256 198.5 340.256C308.128 340.256 397 346.917 397 355.128Z" fill="#E1694B"/>
<path d="M45.6144 358.859C45.3369 358.861 45.0617 358.81 44.8036 358.708C44.2603 358.494 43.8243 358.073 43.5913 357.538C43.3583 357.003 43.3473 356.398 43.5607 355.855L87.6364 244.01C87.8505 243.466 88.2721 243.029 88.8086 242.796C89.3452 242.562 89.9526 242.551 90.4972 242.765C91.0419 242.979 91.4793 243.4 91.7131 243.936C91.9469 244.472 91.9579 245.078 91.7439 245.622L47.6606 357.467C47.4992 357.877 47.2176 358.23 46.8526 358.478C46.4876 358.727 46.0561 358.86 45.6144 358.859Z" fill="#27453E"/>
<path d="M162.405 358.859C161.963 358.858 161.531 358.725 161.165 358.477C160.799 358.228 160.516 357.877 160.351 357.467L116.275 245.622C116.154 245.351 116.089 245.057 116.084 244.76C116.08 244.462 116.135 244.167 116.248 243.892C116.361 243.616 116.528 243.366 116.74 243.157C116.952 242.948 117.204 242.785 117.481 242.676C117.759 242.567 118.055 242.515 118.353 242.523C118.651 242.532 118.943 242.601 119.214 242.725C119.484 242.85 119.727 243.028 119.926 243.249C120.126 243.47 120.279 243.729 120.375 244.01L164.459 355.855C164.67 356.398 164.658 357.003 164.425 357.537C164.192 358.071 163.758 358.492 163.216 358.708C162.958 358.81 162.682 358.861 162.405 358.859Z" fill="#27453E"/>
<path d="M142.011 307.115C141.753 307.116 141.497 307.073 141.253 306.986L74.4882 283.608C73.9446 283.408 73.5016 283.002 73.2549 282.479C73.0082 281.955 72.9776 281.356 73.1697 280.81C73.3618 280.265 73.7612 279.816 74.2816 279.562C74.802 279.308 75.4016 279.269 75.9508 279.453L142.739 302.831C143.235 303.002 143.653 303.345 143.92 303.796C144.186 304.248 144.282 304.78 144.19 305.296C144.099 305.812 143.826 306.279 143.421 306.612C143.016 306.945 142.506 307.124 141.981 307.115H142.011Z" fill="#27453E"/>
<path d="M66.0007 307.115C65.476 307.124 64.9653 306.945 64.5603 306.612C64.1554 306.279 63.8828 305.812 63.7915 305.296C63.7001 304.78 63.7961 304.248 64.0622 303.796C64.3282 303.345 64.7468 303.002 65.2429 302.831L132.031 279.453C132.58 279.269 133.18 279.308 133.7 279.562C134.22 279.816 134.62 280.265 134.812 280.81C135.004 281.356 134.973 281.955 134.727 282.479C134.48 283.002 134.037 283.408 133.494 283.608L66.7282 306.986C66.4947 307.07 66.2487 307.113 66.0007 307.115Z" fill="#27453E"/>
<path d="M127.99 358.859C127.715 358.861 127.442 358.809 127.187 358.708C126.917 358.603 126.671 358.445 126.462 358.245C126.254 358.044 126.087 357.805 125.971 357.539C125.856 357.274 125.794 356.989 125.789 356.7C125.785 356.411 125.837 356.124 125.944 355.855L170.02 244.01C170.251 243.492 170.673 243.084 171.199 242.869C171.725 242.654 172.313 242.651 172.841 242.858C173.37 243.066 173.797 243.469 174.036 243.984C174.274 244.499 174.304 245.086 174.119 245.622L130.029 357.467C129.866 357.875 129.585 358.226 129.222 358.474C128.859 358.722 128.43 358.856 127.99 358.859Z" fill="#27453E"/>
<path d="M244.788 358.859C244.345 358.859 243.913 358.726 243.547 358.478C243.181 358.23 242.898 357.877 242.734 357.467L198.658 245.622C198.537 245.351 198.472 245.057 198.467 244.76C198.462 244.462 198.518 244.167 198.631 243.892C198.743 243.616 198.911 243.366 199.123 243.157C199.335 242.948 199.587 242.785 199.864 242.676C200.141 242.567 200.438 242.515 200.736 242.523C201.033 242.532 201.326 242.601 201.597 242.725C201.867 242.85 202.109 243.028 202.309 243.249C202.509 243.47 202.661 243.729 202.758 244.01L246.834 355.855C246.941 356.124 246.993 356.411 246.988 356.7C246.984 356.989 246.922 357.274 246.806 357.539C246.691 357.805 246.524 358.044 246.315 358.245C246.107 358.445 245.861 358.603 245.591 358.708C245.335 358.809 245.063 358.861 244.788 358.859Z" fill="#27453E"/>
<path d="M224.388 307.115C224.13 307.115 223.874 307.072 223.631 306.986L156.843 283.608C156.311 283.4 155.881 282.994 155.643 282.476C155.404 281.958 155.377 281.368 155.565 280.83C155.753 280.292 156.144 279.848 156.653 279.591C157.163 279.334 157.752 279.284 158.298 279.453L225.093 302.831C225.589 303.002 226.008 303.345 226.274 303.796C226.54 304.248 226.636 304.78 226.545 305.296C226.453 305.812 226.181 306.279 225.776 306.612C225.371 306.946 224.86 307.124 224.335 307.115H224.388Z" fill="#27453E"/>
<path d="M148.384 307.115C147.859 307.124 147.348 306.946 146.943 306.612C146.538 306.279 146.266 305.812 146.174 305.296C146.083 304.78 146.179 304.248 146.445 303.796C146.711 303.345 147.13 303.002 147.626 302.831L214.414 279.453C214.69 279.345 214.985 279.293 215.281 279.302C215.577 279.31 215.869 279.378 216.138 279.502C216.408 279.626 216.649 279.802 216.849 280.021C217.048 280.24 217.202 280.497 217.3 280.776C217.397 281.056 217.438 281.352 217.418 281.647C217.399 281.943 217.32 282.231 217.187 282.496C217.053 282.76 216.868 282.995 216.641 283.186C216.415 283.377 216.152 283.52 215.869 283.608L149.081 306.986C148.857 307.066 148.621 307.109 148.384 307.115Z" fill="#27453E"/>
<path d="M238.271 247.537C238.271 247.537 145.331 300.651 86.3482 257.686C83.9566 255.948 81.662 254.081 79.4747 252.093C78.7168 251.397 77.959 250.685 77.2012 249.951C26.9112 200.871 91.0317 122.145 91.0317 122.145C92.7065 122.849 94.3661 123.56 96.0182 124.294L97.7612 125.051C189.588 166.427 238.271 247.537 238.271 247.537Z" fill="url(#paint0_linear_219_1088)"/>
<path d="M79.86 153.773C72.1907 169.122 63.7711 192.084 67.2041 214.32C70.19 233.687 77.1848 247.673 86.3471 257.701C83.9554 255.964 81.6608 254.096 79.4735 252.108C72.3195 241.926 67.5932 229.429 65.2944 214.615C63.7787 204.557 64.4001 193.545 67.2496 181.867C69.7999 171.836 73.4574 162.12 78.1549 152.895C83.1783 142.819 89.1572 133.247 96.0095 124.31L97.7525 125.066C97.7192 125.193 97.6598 125.312 97.5782 125.415C90.7734 134.277 84.8399 143.774 79.86 153.773Z" fill="#27453E"/>
<path d="M108.924 169.545C108.924 169.545 90.9781 218.301 108.06 240.309C125.141 262.318 164.609 272.777 221.796 239.446L108.924 169.545Z" fill="#27453E"/>
<path d="M140.752 11.8671C140.078 22.5763 136.357 37.8567 130.901 52.3955C123.565 71.8158 113.061 89.9116 102.429 94.0212C83.839 101.143 74.3281 87.9666 74.3281 87.9666C101.792 93.446 103.065 63.695 101.163 41.4365C99.2609 19.1781 105.384 1.665 121.693 0.18918C132.954 -0.832543 137.767 5.13886 139.661 8.93816C140.136 9.8696 140.502 10.8523 140.752 11.8671Z" fill="#26120C"/>
<path d="M140.752 11.8671C140.078 22.5763 136.357 37.8567 130.901 52.3955L113.599 54.9611C113.599 54.9611 105.831 36.9107 113.955 22.5914C120.018 11.8898 133.06 9.02899 139.661 8.89276C140.139 9.83862 140.505 10.8368 140.752 11.8671Z" fill="white"/>
<path d="M139.687 95.6805L139.74 96.1212L139.845 96.8696L140.072 98.3324C140.072 98.3327 140.072 98.333 140.072 98.3334C140.223 99.2819 140.381 100.222 140.546 101.14C140.643 101.614 140.738 102.085 140.831 102.553C141.106 103.924 141.376 105.268 141.68 106.611C142.491 110.188 143.4 113.738 144.408 117.26C146.47 124.251 148.91 131.126 151.717 137.853C153.129 141.209 154.656 144.514 156.251 147.791C156.452 148.188 156.65 148.584 156.848 148.979C157.47 150.219 158.087 151.449 158.744 152.665L158.744 152.666C158.936 153.021 159.12 153.371 159.302 153.718C159.542 154.173 159.779 154.625 160.03 155.082C160.03 155.083 160.031 155.084 160.031 155.084L161.37 157.472L161.372 157.476C161.807 158.269 162.272 159.048 162.742 159.836C162.905 160.109 163.063 160.379 163.219 160.647C163.525 161.173 163.826 161.688 164.144 162.184L164.147 162.19C164.38 162.564 164.611 162.939 164.841 163.312C165.576 164.503 166.304 165.684 167.077 166.828L167.08 166.833C167.181 166.985 167.281 167.138 167.381 167.289C167.78 167.895 168.175 168.494 168.59 169.095L168.591 169.096L170.152 171.366L170.153 171.368L170.535 171.929L170.54 171.936L170.732 172.209L170.733 172.21L171.101 172.736C171.102 172.737 171.102 172.737 171.103 172.738C171.443 173.214 171.782 173.666 172.083 173.987C172.23 174.144 172.381 174.316 172.527 174.481C172.549 174.506 172.571 174.531 172.593 174.556C172.762 174.747 172.923 174.928 173.075 175.084C174.217 176.246 175.461 177.303 176.794 178.241C178.817 179.656 180.964 180.885 183.21 181.911L183.212 181.912C185.242 182.851 187.13 183.603 189.005 184.272C192.584 185.536 196.224 186.617 199.913 187.511L199.916 187.512C207.043 189.278 214.014 190.547 220.955 191.62C227.893 192.693 234.803 193.532 241.701 194.243C245.153 194.581 248.606 194.891 252.059 195.173C253.784 195.314 255.514 195.445 257.249 195.566C257.25 195.566 257.251 195.566 257.252 195.566L259.852 195.732L259.856 195.732L262.035 195.856L263.884 174.504L261.956 174.249L261.951 174.249L259.496 173.9L259.495 173.9L254.562 173.196L254.559 173.196C251.262 172.706 247.976 172.189 244.699 171.643M139.687 95.6805L198.144 160.093M139.687 95.6805L167.493 92.5666L167.54 92.8949L167.54 92.8973L167.691 93.9417L167.691 93.9417L167.693 93.949C167.814 94.7099 167.936 95.402 168.073 96.1453C168.332 97.6274 168.628 99.1386 168.948 100.649L168.948 100.649C169.594 103.686 170.339 106.723 171.167 109.758C172.8 115.819 174.759 121.788 177.034 127.639L177.035 127.643C178.196 130.56 179.389 133.458 180.674 136.328C181.958 139.197 183.326 142.005 184.769 144.781C184.948 145.142 185.142 145.496 185.329 145.838L185.329 145.838C185.518 146.184 185.7 146.517 185.866 146.85C186.07 147.263 186.314 147.699 186.548 148.118C186.703 148.395 186.854 148.664 186.986 148.913L186.986 148.913L186.991 148.924C187.062 149.051 187.134 149.178 187.205 149.306C187.891 150.534 188.588 151.78 189.335 152.996L139.687 95.6805ZM244.699 171.643C238.146 170.568 231.622 169.378 225.196 168.06L225.195 168.06C221.984 167.393 218.803 166.672 215.67 165.922C212.532 165.171 209.431 164.351 206.451 163.463C203.472 162.575 200.569 161.609 197.958 160.557M244.699 171.643C244.699 171.643 244.699 171.643 244.699 171.643L244.781 171.15L244.7 171.643C244.7 171.643 244.699 171.643 244.699 171.643ZM197.958 160.557C197.958 160.557 197.957 160.557 197.957 160.556L198.144 160.093M197.958 160.557C197.959 160.557 197.96 160.558 197.96 160.558L198.144 160.093M197.958 160.557C196.739 160.077 195.544 159.535 194.379 158.935M198.144 160.093C196.937 159.618 195.756 159.082 194.604 158.488M194.379 158.935C194.381 158.935 194.382 158.936 194.384 158.937L194.604 158.488M194.379 158.935C194.378 158.934 194.377 158.933 194.375 158.933L194.604 158.488M194.379 158.935L194.604 158.488M192.365 157.728C192.375 157.735 192.385 157.742 192.395 157.749C192.396 157.75 192.397 157.751 192.398 157.751L192.838 157.449C192.834 157.446 192.829 157.443 192.825 157.44C192.821 157.438 192.818 157.435 192.815 157.433L192.71 157.512L192.365 157.728ZM192.365 157.728L192.286 157.777L192.248 157.717L192.242 157.707L192.162 157.579M192.365 157.728C192.344 157.713 192.323 157.698 192.303 157.683M192.21 156.71L192.024 156.417C191.882 156.456 191.742 156.563 191.682 156.737C191.676 156.754 191.671 156.771 191.667 156.788L191.785 156.974L192.21 156.71ZM192.21 156.71L192.319 156.885L192.32 156.887L192.391 157.001M192.21 156.71L191.787 156.977L191.97 157.271M192.08 157.518C192.107 157.538 192.135 157.559 192.162 157.579M192.08 157.518L192.303 157.683M192.08 157.518C192.065 157.501 192.05 157.485 192.035 157.469L192.035 157.468L192.024 157.457L192.015 157.445C192.014 157.445 192.014 157.445 192.014 157.445C191.984 157.408 191.951 157.373 191.915 157.341M192.08 157.518L192.391 157.001M192.162 157.579L192.097 157.474L192.096 157.473L192.072 157.434L192.067 157.427L192.057 157.41L192.052 157.402L192.041 157.385M192.162 157.579C192.204 157.611 192.247 157.642 192.289 157.673C192.292 157.675 192.295 157.677 192.298 157.679C192.299 157.68 192.301 157.681 192.303 157.683M192.303 157.683L192.248 157.716L192.249 157.716L192.041 157.385M192.303 157.683L192.667 157.455L192.303 157.683ZM192.53 157.23C192.531 157.229 192.532 157.229 192.532 157.228L192.52 157.209L192.53 157.23ZM192.53 157.23C192.524 157.237 192.517 157.244 192.51 157.251L192.53 157.23ZM192.391 157.001L192.344 157.063C192.313 157.03 192.281 156.998 192.248 156.967C192.119 156.856 192.135 156.894 192.229 156.987L191.97 157.271M192.391 157.001L191.976 157.281M191.97 157.271L191.912 157.334M191.97 157.271L191.976 157.281M191.912 157.334C191.899 157.326 191.891 157.32 191.889 157.319C191.886 157.317 191.894 157.322 191.915 157.341M191.912 157.334C191.913 157.334 191.914 157.334 191.914 157.335L191.915 157.335C191.917 157.336 191.92 157.338 191.925 157.341M191.912 157.334L191.91 157.336C191.912 157.338 191.914 157.339 191.915 157.341M191.915 157.341C191.917 157.342 191.919 157.344 191.921 157.346L191.925 157.341M191.925 157.341C191.943 157.351 191.981 157.37 192.031 157.383C192.034 157.383 192.037 157.384 192.041 157.385M191.925 157.341L191.976 157.281M191.976 157.281L192.23 156.987C192.257 157.015 192.292 157.046 192.331 157.08C192.352 157.097 192.374 157.113 192.395 157.129C192.395 157.129 192.395 157.129 192.395 157.129C192.403 157.135 192.411 157.141 192.419 157.147C192.412 157.14 192.406 157.133 192.399 157.126C192.382 157.105 192.364 157.084 192.345 157.064L192.395 157.007L191.976 157.281ZM191.976 157.281L192.041 157.385M190.54 155.007C190.541 155.008 190.542 155.01 190.543 155.012L190.959 154.734L190.537 155.002L190.54 155.007Z" fill="white" stroke="#111111"/>
<path d="M184.594 165.194C184.46 165.226 184.321 165.224 184.189 165.188C184.056 165.152 183.935 165.084 183.836 164.989C183.675 164.839 183.579 164.632 183.571 164.412C183.562 164.192 183.641 163.978 183.79 163.816C186.172 161.229 188.743 158.823 191.483 156.619C191.657 156.486 191.877 156.426 192.095 156.453C192.313 156.48 192.512 156.591 192.65 156.763C192.717 156.848 192.768 156.947 192.797 157.052C192.827 157.157 192.835 157.267 192.822 157.375C192.808 157.484 192.773 157.589 192.719 157.683C192.665 157.778 192.592 157.861 192.506 157.928C189.838 160.08 187.333 162.425 185.011 164.944C184.903 165.071 184.756 165.158 184.594 165.194Z" fill="#111111"/>
<path d="M185.919 159.26C185.705 159.31 185.48 159.274 185.293 159.158C185.106 159.042 184.973 158.857 184.922 158.643C184.872 158.43 184.909 158.205 185.025 158.018C185.141 157.831 185.326 157.698 185.54 157.648C185.54 157.648 188.723 156.778 191.413 156.256C191.524 156.223 191.641 156.214 191.756 156.229C191.871 156.244 191.982 156.283 192.081 156.343C192.18 156.403 192.265 156.483 192.332 156.578C192.398 156.673 192.444 156.781 192.466 156.895C192.488 157.008 192.486 157.125 192.461 157.238C192.435 157.351 192.386 157.458 192.317 157.551C192.248 157.644 192.16 157.721 192.059 157.778C191.959 157.836 191.847 157.871 191.731 157.883C189.102 158.397 186.01 159.237 185.98 159.253L185.919 159.26Z" fill="#111111"/>
<path d="M249.23 197.798C249.15 197.809 249.068 197.809 248.987 197.798C248.767 197.777 248.563 197.67 248.422 197.5C248.28 197.329 248.211 197.11 248.23 196.89L250.784 170.666C250.823 170.462 250.937 170.28 251.104 170.155C251.271 170.031 251.479 169.974 251.686 169.995C251.893 170.016 252.085 170.113 252.223 170.268C252.362 170.423 252.438 170.624 252.436 170.832L249.889 197.049C249.874 197.228 249.802 197.397 249.683 197.532C249.564 197.666 249.406 197.76 249.23 197.798Z" fill="#A64C1D"/>
<path d="M262.385 191.766C262.3 191.778 262.213 191.778 262.128 191.766L250.086 190.389C249.971 190.384 249.859 190.356 249.756 190.305C249.653 190.255 249.561 190.185 249.487 190.098C249.413 190.011 249.357 189.91 249.323 189.8C249.29 189.691 249.279 189.576 249.293 189.462C249.306 189.348 249.342 189.239 249.399 189.14C249.457 189.041 249.534 188.955 249.626 188.887C249.718 188.819 249.824 188.771 249.935 188.745C250.047 188.72 250.163 188.718 250.275 188.739L262.317 190.116C262.514 190.14 262.696 190.232 262.83 190.377C262.965 190.522 263.043 190.711 263.051 190.908C263.06 191.106 262.997 191.3 262.875 191.456C262.753 191.612 262.579 191.719 262.385 191.759V191.766Z" fill="#A64C1D"/>
<path d="M258.732 183.297C258.878 183.647 258.917 184.031 258.844 184.403C258.771 184.775 258.589 185.116 258.322 185.385C258.054 185.653 257.713 185.837 257.342 185.912C256.97 185.987 256.584 185.95 256.234 185.806C255.883 185.662 255.583 185.417 255.371 185.103C255.16 184.789 255.046 184.419 255.045 184.04C255.044 183.662 255.155 183.291 255.365 182.976C255.575 182.66 255.873 182.414 256.223 182.268C256.693 182.074 257.22 182.074 257.69 182.266C258.16 182.459 258.534 182.83 258.732 183.297Z" fill="#A64C1D"/>
<path d="M256.317 311.77L274.216 309.848L278.227 330.181L278.282 330.464L278.554 330.557L297.5 337.096L297.5 337.096C299.54 337.799 302.26 338.311 305.192 338.768C306.513 338.974 307.868 339.167 309.23 339.362C310.926 339.604 312.634 339.848 314.306 340.12C317.302 340.607 320.081 341.171 322.234 341.935C323.31 342.317 324.209 342.743 324.894 343.22C325.579 343.698 326.024 344.208 326.238 344.753C326.319 344.962 326.296 345.212 326.035 345.558C325.765 345.917 325.282 346.313 324.588 346.729C323.208 347.557 321.147 348.374 318.791 349.105C314.084 350.566 308.342 351.641 304.856 351.791C301.923 351.916 297.29 352.745 292.198 353.657C291.072 353.858 289.924 354.064 288.767 354.267C282.336 355.394 275.602 356.443 270.681 356.331C268.347 356.278 266.748 355.325 265.603 353.854C264.441 352.359 263.733 350.307 263.272 348.055C262.828 345.886 262.621 343.584 262.434 341.492C262.427 341.417 262.42 341.341 262.413 341.266C262.223 339.149 262.042 337.207 261.608 335.96C260.803 333.649 259.457 327.491 258.306 321.865C257.732 319.061 257.21 316.404 256.831 314.448C256.641 313.47 256.487 312.668 256.381 312.109C256.357 311.983 256.336 311.87 256.317 311.77Z" fill="white" stroke="#111111"/>
<path d="M286.332 329.222C286.332 329.222 288.833 343.602 282.035 355.862C282.035 355.862 321.2 354.477 328.551 345.94C331.257 342.792 329.498 339.939 324.997 337.502C324.428 337.191 323.815 336.889 323.155 336.586C321.379 335.81 319.559 335.136 317.706 334.565L316.039 334.066C314.364 333.581 312.576 333.135 310.696 332.711L309.007 332.34C307.339 331.984 305.611 331.659 303.846 331.356L302.156 331.069C300.488 330.801 298.798 330.549 297.086 330.312L295.434 330.107C293.751 329.895 292.054 329.714 290.356 329.555L288.742 329.404L286.332 329.222Z" fill="#9495AA"/>
<path d="M323.157 336.586C324.125 339.612 324.138 342.861 323.195 345.895C323.133 346.063 323.133 346.248 323.195 346.417C323.245 346.568 323.341 346.7 323.471 346.794C323.6 346.887 323.755 346.938 323.915 346.938C324.074 346.938 324.23 346.887 324.359 346.794C324.489 346.7 324.585 346.568 324.635 346.417C325.571 343.53 325.7 340.441 325.006 337.486C324.43 337.191 323.816 336.889 323.157 336.586Z" fill="#27453E"/>
<path d="M316.041 334.066C316.002 334.202 316.002 334.346 316.041 334.482C316.041 334.482 316.041 334.482 316.041 334.52C317.332 338.5 317.295 342.792 315.934 346.75C315.897 346.843 315.878 346.943 315.879 347.044C315.88 347.145 315.902 347.244 315.942 347.336C315.982 347.429 316.04 347.512 316.113 347.582C316.186 347.651 316.272 347.706 316.366 347.742C316.46 347.781 316.561 347.8 316.663 347.8C316.764 347.799 316.865 347.778 316.958 347.738C317.052 347.697 317.136 347.639 317.206 347.565C317.276 347.492 317.331 347.405 317.367 347.31C318.796 343.197 318.902 338.741 317.67 334.565L316.041 334.066Z" fill="#27453E"/>
<path d="M309.008 332.34C309.005 332.43 309.02 332.521 309.053 332.605V332.673C311.66 340.196 308.765 347.537 308.735 347.613C308.669 347.786 308.669 347.977 308.735 348.15C308.772 348.253 308.831 348.348 308.906 348.427C308.982 348.506 309.073 348.569 309.174 348.612C309.267 348.65 309.367 348.669 309.467 348.668C309.568 348.668 309.667 348.647 309.76 348.607C309.852 348.568 309.936 348.511 310.006 348.439C310.076 348.367 310.131 348.281 310.167 348.188C311.994 343.218 312.177 337.793 310.69 332.711L309.008 332.34Z" fill="#27453E"/>
<path d="M302.157 331.069C305.052 339.749 301.574 348.385 301.536 348.476C301.47 348.649 301.47 348.84 301.536 349.013C301.57 349.117 301.627 349.211 301.701 349.291C301.776 349.371 301.867 349.433 301.968 349.475C302.061 349.514 302.16 349.535 302.261 349.535C302.362 349.535 302.462 349.516 302.556 349.477C302.649 349.438 302.733 349.381 302.804 349.309C302.875 349.237 302.931 349.152 302.968 349.059C303.12 348.688 306.507 340.302 303.862 331.356L302.157 331.069Z" fill="#27453E"/>
<path d="M295.435 330.123C298.232 339.749 294.359 349.24 294.321 349.339C294.243 349.525 294.242 349.735 294.319 349.923C294.395 350.11 294.543 350.259 294.73 350.338C294.917 350.416 295.128 350.417 295.315 350.34C295.503 350.263 295.652 350.116 295.731 349.929C295.905 349.513 299.702 340.234 297.087 330.327L295.435 330.123Z" fill="#27453E"/>
<path d="M288.744 329.419C291.351 339.931 287.145 350.088 287.099 350.201C287.029 350.379 287.029 350.576 287.099 350.754C287.135 350.854 287.191 350.945 287.264 351.022C287.337 351.099 287.425 351.16 287.524 351.2C287.616 351.24 287.715 351.261 287.815 351.263C287.915 351.264 288.015 351.246 288.108 351.208C288.201 351.171 288.285 351.116 288.357 351.045C288.428 350.975 288.485 350.892 288.524 350.799C288.721 350.338 292.851 340.34 290.373 329.57L288.744 329.419Z" fill="#27453E"/>
<path d="M284.583 350.05C284.583 350.05 271.298 352.404 262.5 349.558C262.5 349.558 261.159 354.515 264.895 357.754C264.895 357.754 296.019 357.754 308.326 355.204C320.633 352.653 329.205 350.095 329.045 345.297L284.583 350.05Z" fill="#9495AA"/>
<path d="M284.833 350.988C284.886 351.145 284.988 351.28 285.125 351.373C285.262 351.466 285.426 351.512 285.591 351.503C306.81 351.397 327.734 346.205 327.939 346.205C328.038 346.182 328.131 346.14 328.213 346.08C328.295 346.02 328.364 345.945 328.416 345.858C328.469 345.771 328.503 345.675 328.517 345.575C328.531 345.474 328.525 345.372 328.5 345.274C328.476 345.176 328.432 345.084 328.372 345.003C328.312 344.922 328.237 344.854 328.15 344.802C328.063 344.751 327.967 344.717 327.867 344.703C327.767 344.689 327.665 344.696 327.567 344.722C327.363 344.767 306.59 349.891 285.583 350.02C285.382 350.02 285.19 350.099 285.047 350.241C284.905 350.383 284.825 350.576 284.825 350.776C284.817 350.847 284.819 350.919 284.833 350.988Z" fill="#27453E"/>
<path d="M336.165 300.569L344.426 311.935L344.539 312.09L344.727 312.13L344.831 311.641C344.727 312.13 344.727 312.13 344.727 312.13L344.727 312.13L344.729 312.13L344.737 312.132L344.764 312.138C344.788 312.143 344.823 312.15 344.869 312.159C344.962 312.178 345.097 312.204 345.273 312.237C345.624 312.303 346.135 312.395 346.776 312.497C348.06 312.701 349.869 312.949 351.976 313.121C356.18 313.465 361.607 313.515 366.407 312.307C368.5 311.783 371.059 310.726 373.765 309.508C374.985 308.958 376.226 308.381 377.475 307.799C379.027 307.076 380.59 306.348 382.137 305.664C384.913 304.436 387.549 303.391 389.77 302.856C390.879 302.589 391.865 302.455 392.699 302.481C393.535 302.508 394.186 302.694 394.664 303.034L394.665 303.035C394.847 303.164 394.965 303.385 394.936 303.817C394.907 304.263 394.72 304.858 394.367 305.585C393.665 307.031 392.387 308.84 390.816 310.738C387.675 314.532 383.456 318.569 380.62 320.596C378.227 322.307 374.789 325.543 371.012 329.099C370.189 329.873 369.35 330.663 368.502 331.455C363.734 335.912 358.671 340.471 354.494 343.071C352.51 344.306 350.595 344.43 348.766 343.876C346.914 343.316 345.127 342.052 343.463 340.47C341.804 338.893 340.298 337.03 339 335.313C338.524 334.684 338.072 334.068 337.651 333.493C336.937 332.521 336.31 331.667 335.801 331.064C333.017 327.745 329.708 323.451 327.092 319.983C325.785 318.249 324.651 316.724 323.845 315.632C323.442 315.086 323.121 314.648 322.9 314.347C322.868 314.303 322.838 314.261 322.81 314.223L336.165 300.569Z" fill="white" stroke="#111111"/>
<path d="M352.742 311.845C352.742 311.845 362.723 322.547 363.723 336.503C363.723 336.503 395.765 313.957 397.242 302.801C397.788 298.684 394.757 297.253 389.664 297.67C389.012 297.723 388.33 297.806 387.618 297.912C385.705 298.227 383.812 298.654 381.949 299.191L380.282 299.683C378.615 300.197 376.864 300.795 375.068 301.461L373.446 302.074C371.862 302.695 370.233 303.361 368.589 304.072L367.012 304.753C365.497 305.442 363.92 306.161 362.367 306.903L360.851 307.66C359.335 308.401 357.82 309.171 356.304 309.968L354.864 310.725C354.152 311.073 353.447 311.459 352.742 311.845Z" fill="#9495AA"/>
<path d="M387.602 297.95C390.071 299.952 391.863 302.666 392.732 305.722C392.771 305.897 392.87 306.053 393.012 306.161C393.1 306.23 393.202 306.278 393.311 306.303C393.42 306.328 393.533 306.329 393.642 306.305C393.741 306.284 393.835 306.244 393.918 306.187C394.002 306.129 394.073 306.056 394.127 305.97C394.181 305.885 394.218 305.789 394.235 305.69C394.252 305.59 394.248 305.488 394.225 305.389C393.437 302.463 391.865 299.807 389.678 297.707C388.996 297.723 388.314 297.806 387.602 297.95Z" fill="#27453E"/>
<path d="M380.268 299.683C380.316 299.816 380.403 299.932 380.518 300.016C383.776 302.648 386.097 306.261 387.134 310.316C387.169 310.497 387.268 310.658 387.414 310.77C387.501 310.838 387.601 310.886 387.709 310.911C387.816 310.936 387.928 310.937 388.035 310.914C388.134 310.895 388.229 310.857 388.313 310.801C388.396 310.745 388.468 310.673 388.524 310.589C388.58 310.506 388.618 310.411 388.637 310.313C388.656 310.214 388.655 310.112 388.634 310.014C387.586 305.784 385.235 301.991 381.912 299.168L380.268 299.683Z" fill="#27453E"/>
<path d="M373.432 302.074C373.479 302.153 373.541 302.222 373.614 302.279H373.667C379.972 307.153 381.563 314.887 381.586 314.963C381.619 315.146 381.719 315.311 381.866 315.425C381.989 315.526 382.14 315.586 382.298 315.596C382.456 315.607 382.614 315.568 382.749 315.484C382.883 315.4 382.988 315.277 383.049 315.13C383.11 314.984 383.123 314.822 383.086 314.668C381.892 309.51 379.077 304.869 375.053 301.423L373.432 302.074Z" fill="#27453E"/>
<path d="M366.996 304.761C374.173 310.452 375.992 319.58 376.007 319.671C376.04 319.854 376.14 320.018 376.287 320.132C376.374 320.198 376.473 320.245 376.579 320.271C376.684 320.297 376.794 320.301 376.901 320.284C377.001 320.267 377.096 320.23 377.181 320.175C377.266 320.121 377.339 320.05 377.396 319.966C377.454 319.883 377.493 319.789 377.514 319.69C377.534 319.592 377.535 319.49 377.515 319.391C377.439 318.997 375.681 310.127 368.572 304.08L366.996 304.761Z" fill="#27453E"/>
<path d="M360.852 307.629C368.468 314.169 370.415 324.227 370.438 324.333C370.472 324.516 370.571 324.68 370.719 324.794C370.804 324.862 370.903 324.911 371.009 324.937C371.115 324.963 371.225 324.966 371.332 324.946C371.432 324.929 371.527 324.892 371.612 324.837C371.697 324.783 371.771 324.712 371.828 324.628C371.885 324.545 371.925 324.451 371.945 324.353C371.966 324.254 371.966 324.152 371.946 324.053C371.863 323.614 369.961 313.767 362.352 306.903L360.852 307.629Z" fill="#27453E"/>
<path d="M354.863 310.695C362.798 318.074 364.836 328.859 364.859 328.995C364.893 329.182 364.996 329.349 365.147 329.464C365.232 329.53 365.33 329.576 365.435 329.601C365.539 329.626 365.648 329.628 365.753 329.608C365.852 329.591 365.947 329.554 366.031 329.5C366.116 329.446 366.188 329.376 366.246 329.293C366.303 329.211 366.343 329.118 366.364 329.02C366.385 328.922 366.386 328.821 366.367 328.722C366.284 328.23 364.268 317.605 356.303 309.938L354.863 310.695Z" fill="#27453E"/>
<path d="M362.684 330.244C362.684 330.244 352.832 339.469 343.928 341.884C343.928 341.884 345.512 346.773 350.415 347.439C350.415 347.439 376.469 330.425 385.396 321.593C394.324 312.761 400.076 305.919 397.317 301.991L362.684 330.244Z" fill="#9495AA"/>
<path d="M363.397 330.894C363.526 330.987 363.681 331.038 363.84 331.038C364 331.038 364.155 330.987 364.284 330.894C381.979 319.232 396.689 303.474 396.833 303.316C396.901 303.242 396.954 303.156 396.989 303.062C397.024 302.968 397.039 302.868 397.036 302.768C397.032 302.667 397.008 302.569 396.966 302.478C396.924 302.387 396.865 302.305 396.791 302.237C396.717 302.169 396.631 302.116 396.537 302.081C396.443 302.046 396.343 302.031 396.243 302.035C396.142 302.038 396.044 302.062 395.953 302.104C395.861 302.146 395.779 302.205 395.711 302.279C395.567 302.43 380.971 318.059 363.443 329.615C363.358 329.67 363.284 329.741 363.227 329.824C363.17 329.907 363.13 330 363.11 330.099C363.089 330.198 363.089 330.3 363.108 330.398C363.127 330.497 363.166 330.591 363.223 330.675C363.268 330.757 363.327 330.832 363.397 330.894Z" fill="#27453E"/>
<path d="M261.825 243.39C261.997 242.92 261.997 242.92 261.996 242.92L261.995 242.919L261.991 242.918L261.977 242.913L261.922 242.893C261.873 242.876 261.801 242.85 261.706 242.818C261.516 242.752 261.232 242.657 260.859 242.536C260.111 242.294 259 241.951 257.543 241.543C254.629 240.729 250.328 239.656 244.771 238.623C233.695 236.563 217.629 234.656 197.605 235.247C194.154 231.935 188.735 228.305 182.602 224.62C177.568 221.595 172.025 218.517 166.652 215.533C165.374 214.823 164.104 214.118 162.854 213.42C156.34 209.787 150.343 206.357 146.108 203.39C143.988 201.905 142.337 200.555 141.286 199.371C140.314 198.277 139.962 197.446 140.033 196.837C146.964 193.435 157.948 191.173 170.708 189.777C183.584 188.368 198.209 187.848 212.178 187.904C226.147 187.96 239.448 188.593 249.675 189.49C254.789 189.938 259.128 190.452 262.393 190.992C264.026 191.262 265.384 191.537 266.432 191.811C267.498 192.09 268.191 192.355 268.537 192.584C270.764 194.058 273.625 196.953 276.94 200.94C280.246 204.916 283.975 209.942 287.94 215.64C295.869 227.036 304.728 241.099 313.017 254.789C321.305 268.478 329.02 281.789 334.664 291.678C337.486 296.622 339.79 300.71 341.388 303.563C342.187 304.989 342.809 306.106 343.232 306.866C343.414 307.194 343.559 307.455 343.665 307.646L324.896 321.472C324.735 321.257 324.51 320.958 324.227 320.584C323.605 319.76 322.704 318.571 321.591 317.114C319.364 314.199 316.286 310.206 312.88 305.897C306.075 297.29 297.936 287.388 292.668 282.309C287.462 277.291 279.862 267.506 273.545 258.944C270.391 254.669 267.564 250.709 265.525 247.818C264.506 246.373 263.684 245.194 263.116 244.378C262.833 243.969 262.613 243.651 262.464 243.436L262.295 243.19L262.252 243.128L262.241 243.112L262.238 243.108L262.238 243.107C262.238 243.107 262.238 243.107 261.825 243.39ZM261.825 243.39L262.238 243.107L262.147 242.975L261.997 242.92L261.825 243.39Z" fill="#111111" stroke="#111111"/>
<path d="M316.654 310.907C316.494 310.937 316.328 310.92 316.177 310.858C316.027 310.796 315.897 310.692 315.805 310.558C315.743 310.469 315.7 310.367 315.678 310.261C315.655 310.154 315.654 310.044 315.675 309.937C315.695 309.831 315.737 309.729 315.797 309.638C315.857 309.547 315.934 309.469 316.025 309.408L336.228 295.581C336.41 295.475 336.626 295.442 336.831 295.488C337.036 295.534 337.216 295.656 337.335 295.83C337.454 296.003 337.503 296.215 337.472 296.423C337.441 296.631 337.333 296.819 337.168 296.951L316.964 310.816C316.866 310.863 316.761 310.893 316.654 310.907Z" fill="white"/>
<path d="M321.89 307.274C321.732 307.304 321.568 307.288 321.419 307.228C321.27 307.167 321.141 307.065 321.049 306.933C320.958 306.797 318.495 303.376 301.792 285.121C283.604 265.232 263.408 235.397 263.211 235.102C263.142 235.012 263.093 234.909 263.066 234.799C263.038 234.689 263.034 234.575 263.052 234.463C263.071 234.352 263.112 234.245 263.173 234.15C263.234 234.054 263.314 233.972 263.408 233.909C263.502 233.846 263.608 233.802 263.719 233.781C263.83 233.76 263.945 233.762 264.055 233.786C264.166 233.811 264.271 233.857 264.362 233.924C264.454 233.99 264.532 234.074 264.59 234.171C264.787 234.467 284.9 264.202 303.02 284.001C319.904 302.46 322.322 305.851 322.413 305.949C322.476 306.038 322.522 306.139 322.546 306.246C322.57 306.353 322.572 306.463 322.553 306.571C322.534 306.679 322.494 306.782 322.435 306.874C322.375 306.966 322.298 307.045 322.208 307.107C322.115 307.185 322.007 307.242 321.89 307.274Z" fill="white"/>
<path d="M278.695 322.769C278.706 322.865 278.715 322.952 278.724 323.029L256.778 327.291C256.751 327.227 256.721 327.155 256.687 327.075C256.63 326.938 256.564 326.779 256.489 326.599C256.201 325.91 255.785 324.91 255.272 323.666C254.245 321.179 252.829 317.72 251.272 313.828C248.155 306.042 244.478 296.54 242.217 289.643C239.958 282.751 236.964 270.962 234.53 260.879C233.315 255.841 232.24 251.235 231.47 247.888C231.085 246.215 230.776 244.857 230.563 243.917C230.456 243.447 230.374 243.081 230.318 242.833L230.255 242.552L230.239 242.48L230.235 242.462L230.234 242.457L230.234 242.456C230.234 242.456 230.233 242.456 229.746 242.565L230.233 242.456L230.088 241.804L229.503 242.127L229.503 242.127L229.503 242.127L229.501 242.128L229.493 242.133L229.458 242.152C229.427 242.169 229.378 242.195 229.313 242.229C229.182 242.297 228.984 242.399 228.717 242.532C228.184 242.796 227.376 243.181 226.285 243.66C224.104 244.618 220.79 245.951 216.275 247.447C207.245 250.439 193.409 254.08 174.213 256.661L174.213 256.661C152.982 259.519 138.218 257.085 128.002 251.885C117.797 246.692 112.077 238.712 108.979 230.362C105.876 222.001 105.404 213.27 105.714 206.614C105.868 203.289 106.218 200.488 106.528 198.521C106.683 197.537 106.828 196.763 106.934 196.235C106.957 196.123 106.978 196.022 106.996 195.933C111.028 196.992 120.728 199.251 129.576 201.281C134.201 202.343 138.597 203.342 141.837 204.076C143.457 204.443 144.788 204.744 145.714 204.953L146.784 205.194L147.065 205.257L147.136 205.273L147.154 205.278L147.159 205.279L147.16 205.279C147.16 205.279 147.161 205.279 147.27 204.791L147.161 205.279L147.239 205.297L147.318 205.289C193.528 200.818 226.975 203.129 247.454 210.837C249.873 211.747 252.224 214.126 254.478 217.718C256.724 221.296 258.83 226.009 260.79 231.473C264.709 242.401 268.015 256.263 270.681 269.903C273.347 283.539 275.37 296.935 276.726 306.923C277.405 311.917 277.917 316.058 278.259 318.95C278.43 320.397 278.558 321.531 278.644 322.303C278.663 322.477 278.68 322.632 278.695 322.769Z" fill="#111111" stroke="#111111"/>
<path d="M256.928 315.137C256.74 315.174 256.545 315.144 256.376 315.053C256.207 314.962 256.076 314.815 256.004 314.638C249.547 299.024 244.5 279.014 240.445 262.931C237.08 249.596 233.905 236.994 231.874 235.806C230.23 234.837 224.584 236.941 217.475 239.59C203.266 244.888 181.789 252.873 156.212 251.942C142.283 251.435 131.203 246.871 123.345 238.387C109.757 223.742 110.461 202.18 110.461 201.968C110.471 201.749 110.568 201.542 110.729 201.393C110.891 201.244 111.105 201.165 111.325 201.173C111.54 201.189 111.739 201.288 111.881 201.45C112.023 201.611 112.096 201.822 112.083 202.036C112.083 202.241 111.424 223.137 124.542 237.267C132.12 245.41 142.775 249.792 156.242 250.284C181.493 251.2 202.773 243.276 216.869 238.031C225.304 234.89 230.396 232.998 232.723 234.368C235.239 235.844 237.656 245.032 242.067 262.515C246.106 278.544 251.161 298.494 257.55 313.979C257.633 314.184 257.631 314.413 257.546 314.617C257.461 314.821 257.299 314.984 257.095 315.069L256.928 315.137Z" fill="white"/>
<path d="M277.33 311.171L251.874 315.561C251.656 315.596 251.433 315.545 251.253 315.417C251.073 315.29 250.951 315.097 250.912 314.88C250.892 314.772 250.894 314.661 250.918 314.554C250.942 314.447 250.987 314.346 251.051 314.256C251.114 314.167 251.195 314.091 251.288 314.033C251.381 313.975 251.485 313.936 251.594 313.919L277.049 309.537C277.261 309.509 277.475 309.564 277.647 309.689C277.819 309.815 277.937 310.001 277.976 310.211C278.015 310.42 277.972 310.636 277.856 310.815C277.74 310.994 277.56 311.121 277.352 311.171H277.33Z" fill="white"/>
<path d="M167.213 208.455L257.69 204.732C258.171 204.712 258.544 204.306 258.525 203.826L258.101 193.565C258.081 193.084 257.675 192.711 257.195 192.731L166.718 196.455C166.237 196.474 165.863 196.88 165.883 197.36L166.306 207.622C166.326 208.102 166.732 208.475 167.213 208.455Z" fill="#26120C"/>
<path d="M268.19 204.299C269.878 204.228 271.495 203.603 272.791 202.521C274.087 201.438 274.99 199.959 275.359 198.313L289.932 133.104C290.141 132.174 290.133 131.208 289.908 130.282C289.683 129.356 289.248 128.493 288.637 127.761C288.025 127.03 287.253 126.449 286.38 126.063C285.507 125.677 284.558 125.496 283.604 125.536L242.317 127.231C240.961 127.287 239.661 127.784 238.615 128.646C237.568 129.508 236.832 130.688 236.52 132.007L218.885 206.32L268.19 204.299Z" fill="#26120C"/>
<path d="M263.908 165.814C262.953 170.09 259.073 173.829 255.231 174.139C251.389 174.45 249.062 171.279 250.017 167.003C250.972 162.726 254.852 158.995 258.694 158.677C262.536 158.36 264.863 161.538 263.908 165.814Z" fill="white"/>
<path d="M256.148 165.042C255.951 165.898 255.526 166.609 255.193 166.639C254.859 166.67 254.746 166.003 254.935 165.126C255.125 164.248 255.557 163.551 255.89 163.521C256.224 163.491 256.337 164.187 256.148 165.042Z" fill="#26120C"/>
<path d="M259.771 164.747C259.581 165.602 259.157 166.321 258.823 166.352C258.49 166.382 258.369 165.708 258.566 164.838C258.763 163.968 259.179 163.264 259.513 163.234C259.846 163.203 259.96 163.869 259.771 164.747Z" fill="#26120C"/>
<path d="M256.179 170.181C253.193 170.446 253.254 167.154 253.254 167.154C253.262 167.061 253.296 166.971 253.352 166.896C253.409 166.821 253.485 166.764 253.572 166.73C253.608 166.715 253.646 166.71 253.684 166.715C253.722 166.719 253.758 166.734 253.789 166.757C253.82 166.78 253.844 166.81 253.859 166.846C253.874 166.881 253.88 166.919 253.875 166.957C253.875 167.078 253.838 169.735 256.331 169.523C258.824 169.311 260.006 166.533 260.052 166.42C260.081 166.333 260.137 166.259 260.212 166.207C260.288 166.155 260.377 166.129 260.469 166.132C260.628 166.132 260.688 166.329 260.613 166.511C260.597 166.533 259.173 169.924 256.179 170.181Z" fill="#26120C"/>
<path d="M236.529 132.014L219.038 205.714L214.324 205.911L231.807 132.203C232.123 130.88 232.865 129.697 233.92 128.836C234.974 127.975 236.282 127.483 237.643 127.435L242.364 127.239C241.002 127.286 239.693 127.78 238.639 128.642C237.585 129.505 236.843 130.69 236.529 132.014Z" fill="#26120C"/>
<path d="M220.289 201.128C220.441 201.127 220.589 201.075 220.708 200.981C220.828 200.886 220.912 200.754 220.948 200.606L237.181 132.203C237.212 132.033 237.177 131.858 237.083 131.713C236.988 131.568 236.842 131.464 236.673 131.424C236.505 131.385 236.327 131.411 236.178 131.498C236.028 131.585 235.918 131.727 235.87 131.893L219.637 200.318C219.615 200.404 219.611 200.494 219.625 200.581C219.639 200.669 219.67 200.753 219.716 200.828C219.763 200.904 219.824 200.969 219.896 201.02C219.969 201.072 220.05 201.109 220.137 201.128H220.289Z" fill="#564C54"/>
<path d="M182.866 143.193L182.883 143.128C183.563 140.654 183.038 137.339 181.873 133.33C181.112 130.712 180.098 127.859 179.015 124.81C178.443 123.2 177.852 121.536 177.269 119.824L177.268 119.821C177.115 119.362 176.959 118.9 176.802 118.437C176.605 117.855 176.408 117.27 176.214 116.687L176.213 116.684C175.099 113.254 174.181 109.764 173.463 106.23L173.462 106.226C173.31 105.446 173.166 104.69 173.027 103.957C172.043 98.7919 171.276 94.7663 169.507 91.574C167.522 87.9913 164.245 85.4278 157.755 83.6505L157.753 83.65C156.3 83.246 154.679 82.8786 152.89 82.5633L152.886 82.5626C150.855 82.1884 148.588 81.8804 146.065 81.5943L120.324 81.3678L120.313 81.3694L120.171 81.3897C120.046 81.4078 119.862 81.4347 119.623 81.4703C119.147 81.5415 118.455 81.6472 117.594 81.785C115.874 82.0607 113.482 82.4647 110.798 82.9782L110.798 82.9783C109.809 83.1668 108.797 83.3704 107.778 83.589L107.77 83.5907L107.77 83.5906C105.886 83.964 102.797 84.7903 99.8277 85.7698C96.838 86.7559 94.0491 87.8717 92.712 88.8076L92.7119 88.8076C84.7581 94.373 83.2237 106.74 89.3221 120.788C90.728 124.021 92.0648 127.389 93.3174 130.763C93.4929 131.22 93.6605 131.677 93.8202 132.125C98.0098 143.616 101.158 155.168 102.339 162.885C104.818 178.752 104.826 178.799 107.081 195.104C107.221 195.261 107.49 195.486 107.921 195.77C108.42 196.099 109.091 196.478 109.918 196.89C111.572 197.713 113.825 198.656 116.53 199.59C121.939 201.456 129.126 203.274 136.889 204.02C152.376 205.509 170.009 202.728 180.521 187.774C179.888 184.718 179.362 182.481 178.653 179.464C177.791 175.799 176.66 170.985 174.738 162.159L174.737 162.154C174.476 160.888 174.284 159.609 174.161 158.323C174.155 158.276 174.147 158.221 174.138 158.16C174.11 157.973 174.075 157.733 174.075 157.512V157.512V157.511V157.511V157.511V157.511V157.511V157.51V157.51V157.51V157.51V157.509V157.509V157.509V157.509V157.508V157.508V157.508V157.508V157.508V157.507V157.507V157.507V157.507V157.506V157.506V157.506V157.506V157.506V157.505V157.505V157.505V157.505V157.504V157.504V157.504V157.504V157.503V157.503V157.503V157.503V157.503V157.502V157.502V157.502V157.502V157.501V157.501V157.501V157.501V157.5V157.5V157.5V157.5V157.499V157.499V157.499V157.499V157.499V157.498V157.498V157.498V157.498V157.497V157.497V157.497V157.497V157.496V157.496V157.496V157.496V157.495V157.495V157.495V157.495V157.494V157.494V157.494V157.494V157.494V157.493V157.493V157.493V157.493V157.492V157.492V157.492V157.492V157.491V157.491V157.491V157.491V157.49V157.49V157.49V157.49V157.489V157.489V157.489V157.489V157.488V157.488V157.488V157.488V157.488V157.487V157.487V157.487V157.487V157.486V157.486V157.486V157.486V157.485V157.485V157.485V157.485V157.484V157.484V157.484V157.484V157.483V157.483V157.483V157.483V157.482V157.482V157.482V157.482V157.481V157.481V157.481V157.481V157.481V157.48V157.48V157.48V157.48V157.479V157.479V157.479V157.479V157.478V157.478V157.478V157.478V157.477V157.477V157.477V157.477V157.476V157.476V157.476V157.476V157.475V157.475V157.475V157.475V157.475V157.474V157.474V157.474V157.474V157.473V157.473V157.473V157.473V157.472V157.472V157.472V157.472V157.471V157.471V157.471V157.471V157.47V157.47V157.47V157.47V157.47V157.469V157.469V157.469V157.469V157.468V157.468V157.468V157.468V157.467V157.467V157.467V157.467V157.466V157.466V157.466V157.466V157.466V157.465V157.465V157.465V157.465V157.464V157.464V157.464V157.464V157.464V157.463V157.463V157.463V157.463V157.462V157.462V157.462V157.462V157.461V157.461V157.461V157.461V157.461V157.46V157.46V157.46V157.46V157.459V157.459V157.459V157.459V157.459V157.458V157.458V157.458V157.458V157.457V157.457V157.457V157.457V157.457V157.456V157.456V157.456V157.456V157.455V157.455V157.455V157.455V157.455V157.454V157.454V157.454V157.454V157.454V157.453V157.453V157.453V157.453V157.452V157.452V157.452V157.452V157.452V157.451V157.451V157.451V157.451V157.451V157.45V157.45V157.45V157.45V157.45V157.449V157.449V157.449V157.449V157.449V157.448V157.448V157.448V157.448V157.448V157.447V157.447V157.447V157.447V157.447V157.446V157.446V157.446V157.446V157.446V157.445V157.445V157.445V157.445V157.445V157.444V157.444V157.444V157.444V157.444V157.443V157.443V157.443V157.443V157.443V157.443V157.442V157.442V157.442V157.442V157.442V157.441V157.441V157.441V157.441V157.441V157.441V157.44V157.44V157.44V157.44V157.44V157.439V157.439V157.439V157.439V157.439V157.439V157.438V157.438V157.438V157.438V157.438V157.438V157.437V157.437V157.437V157.437V157.437V157.437V157.436V157.436V157.436V157.436V157.436V157.436V157.435V157.435V157.435V157.435V157.435V157.435V157.434V157.434V157.434V157.434V157.434V157.434V157.434V157.433V157.433V157.433V157.433V157.433V157.433V157.433V157.432V157.432V157.432V157.432V157.432V157.432V157.432V157.431V157.431V157.431V157.431V157.431V157.431V157.431V157.43V157.43V157.43V157.43V157.43V157.43V157.43V157.43V157.429V157.429V157.429V157.429V157.429V157.429V157.429V157.429V157.428V157.428V157.428V157.428V157.428V157.428V157.428V157.428V157.427V157.427V157.427V157.427V157.427V157.427V157.427V157.427V157.427V157.426V157.426V157.426V157.426V157.426V157.426V157.426V157.426V157.426V157.426V157.425V157.425V157.425V157.425V157.425V157.425V157.425V157.425V157.425V157.425V157.425V157.424V157.424V157.424V157.424V157.424V157.424V157.424V157.424V157.424V157.424V157.424V157.424V157.424V157.423V157.423V157.423V157.423V157.423V157.423V157.423V157.423V157.423V157.423V157.423V157.423V157.423V157.423V157.422V157.422V157.422V157.422V157.422V157.422V157.422V157.422V157.422V157.422V157.422V157.421V157.421V157.421V157.421V157.421V157.421V157.421V157.204L182.866 143.193ZM182.866 143.193V143.237V143.193Z" fill="white" stroke="#111111"/>
<path d="M118.859 81.0643C118.859 81.0643 105.422 83.2137 105.49 90.9031C105.559 98.5925 132.977 97.9719 132.977 97.9719C132.977 97.9719 120.261 89.5559 118.859 81.0643Z" fill="white"/>
<path d="M145.482 81.0643C145.482 81.0643 158.926 83.2137 158.85 90.9031C158.774 98.5925 139.904 98.706 139.904 98.706C139.904 98.706 144.08 89.5559 145.482 81.0643Z" fill="white"/>
<path d="M132.837 97.2881L132.837 97.2876C129.137 95.0325 125.645 92.3741 123.075 89.5629C120.645 86.9058 119.088 84.1678 118.882 81.5437L144.927 80.5004L145.811 89.1522C145.971 90.7345 145.685 92.3301 144.986 93.7591C144.287 95.188 143.201 96.3934 141.852 97.2395C140.504 98.0855 138.945 98.5383 137.352 98.5469C135.759 98.5555 134.195 98.1195 132.837 97.2881Z" fill="white" stroke="#111111"/>
<path d="M174.575 157.421C174.575 157.421 174.575 157.474 174.575 157.512C174.575 157.769 174.628 158.019 174.659 158.269C169.945 159.351 163.882 159.51 156.743 158.148C142.67 155.446 131.189 161.97 131.083 162.038C130.973 162.101 130.847 162.133 130.719 162.129C130.596 162.13 130.475 162.098 130.37 162.035C130.264 161.972 130.178 161.881 130.121 161.773C130.073 161.694 130.042 161.606 130.029 161.514C130.015 161.423 130.021 161.329 130.044 161.24C130.067 161.15 130.108 161.066 130.164 160.993C130.22 160.919 130.29 160.858 130.371 160.812C138.555 156.541 147.93 155.113 157.016 156.755C164.428 158.17 170.597 157.921 175.204 156.717C174.818 157.179 174.575 157.421 174.575 157.421Z" fill="#111111"/>
<path d="M151.295 122.418C142.678 122.418 125.066 110.187 124.316 109.665C124.236 109.613 124.168 109.546 124.116 109.468C124.063 109.389 124.027 109.301 124.009 109.208C123.991 109.115 123.992 109.02 124.012 108.927C124.032 108.835 124.07 108.748 124.125 108.67C124.179 108.593 124.249 108.527 124.329 108.478C124.409 108.428 124.499 108.394 124.592 108.38C124.686 108.365 124.782 108.37 124.873 108.393C124.965 108.416 125.051 108.457 125.127 108.515C125.309 108.636 143.118 121.033 151.287 121.002C159.1 121.002 160.798 112.45 160.813 112.359C160.861 112.188 160.972 112.041 161.124 111.947C161.276 111.853 161.457 111.82 161.632 111.853C161.807 111.886 161.963 111.984 162.07 112.127C162.177 112.27 162.226 112.447 162.208 112.624C162.185 112.723 160.26 122.365 151.295 122.418Z" fill="#111111"/>
<path d="M179.198 176.137C178.997 176.175 178.789 176.138 178.613 176.034C178.438 175.929 178.306 175.764 178.243 175.57C176.22 169.167 173.802 157.799 173.772 157.686C173.741 157.529 173.755 157.367 173.813 157.219C173.87 157.07 173.969 156.941 174.098 156.846C174.166 156.793 181.047 151.624 182.548 143.117C182.559 143.003 182.593 142.892 182.649 142.791C182.705 142.691 182.781 142.603 182.873 142.534C182.964 142.464 183.069 142.414 183.181 142.387C183.293 142.36 183.409 142.356 183.522 142.376C183.635 142.396 183.743 142.439 183.839 142.503C183.935 142.566 184.016 142.649 184.079 142.746C184.141 142.842 184.182 142.951 184.201 143.064C184.219 143.177 184.213 143.293 184.185 143.405C182.775 151.404 177.137 156.52 175.507 157.845C176 160.115 178.069 169.515 179.827 175.07C179.891 175.278 179.871 175.503 179.77 175.696C179.669 175.888 179.496 176.034 179.289 176.1L179.198 176.137Z" fill="#111111"/>
<path d="M167.095 31.4009C167.095 31.4009 171.354 43.9038 164.64 48.7475L164.049 31.5826L167.095 31.4009Z" fill="#26120C"/>
<path d="M159.835 18.0353C159.835 18.0353 143.92 2.34617 124.974 15.2956C105.718 28.472 107.87 62.1208 125.156 66.2077C125.141 66.2077 153.916 41.1792 159.835 18.0353Z" fill="#26120C"/>
<path d="M123.092 71.6432C124.001 68.4952 124.536 65.2972 124.428 62.7812C125.324 63.3862 126.178 64.0512 126.984 64.7717L126.998 64.7844L127.013 64.7959C127.488 65.1591 127.986 65.4903 128.504 65.7873C132.961 68.6647 139.769 72.3997 146.085 73.1866L144.475 85.0107C144.469 85.0176 144.463 85.0249 144.457 85.0325C144.391 85.1131 144.29 85.2321 144.155 85.3794C143.884 85.6743 143.475 86.0814 142.93 86.5214C141.841 87.4018 140.215 88.4075 138.069 88.9142C133.861 89.9075 127.481 89.0183 119.008 81.0508C120.638 78.5332 122.098 75.085 123.092 71.6432Z" fill="white" stroke="#111111"/>
<path d="M146.649 72.7467L145.845 78.6499C140.685 76.5081 131.553 71.8385 127.316 64.3988C127.764 64.7091 128.249 65.027 128.764 65.36C133.334 68.3116 140.313 72.1185 146.649 72.7467Z" fill="#26120C"/>
<path d="M157.86 69.6154L157.86 69.6156C155.207 72.1567 151.864 72.9919 148.275 72.7788C144.675 72.565 140.858 71.2962 137.33 69.6629C130.83 66.6536 125.421 62.4595 124.352 61.6091C124.32 60.677 124.3 59.7509 124.293 58.8249C124.24 51.1166 125.347 43.444 127.576 36.0638L127.588 36.0222L127.593 35.979C128.028 32.3729 129.606 29.0001 132.098 26.3542C134.589 23.7088 137.863 21.9288 141.44 21.2748C147.922 20.1423 153.107 23.0557 156.875 25.173C157.539 25.5461 158.159 25.8945 158.734 26.1917L158.735 26.1921C161.403 27.5636 163.344 30.2508 164.381 33.9968C165.418 37.7442 165.537 42.517 164.58 47.9721C163.389 54.7295 162.447 59.4449 161.422 62.8351C160.398 66.2225 159.309 68.2296 157.86 69.6154Z" fill="white" stroke="#111111"/>
<path d="M149.968 35.0413C149.968 35.0413 152.12 35.6468 150.991 37.5161C149.862 39.3855 145.876 36.3885 142.071 39.5217C142.071 39.5217 141.594 34.4812 149.968 35.0413Z" fill="#26120C"/>
<path d="M159.889 36.8426C159.889 36.8426 157.66 36.6685 158.07 38.8103C158.479 40.9522 163.261 39.5218 165.747 43.7676C165.747 43.7297 167.922 39.166 159.889 36.8426Z" fill="#26120C"/>
<path d="M129.439 56.9894C129.34 57.1332 126.741 61.0688 123.861 61.8559C123.823 60.8417 123.801 59.8351 123.793 58.8285C125.809 58.7497 127.764 58.113 129.439 56.9894Z" fill="#26120C"/>
<path d="M128.606 46.81C128.606 46.81 124.339 38.2881 119.178 43.4724C114.927 47.7334 119.064 61.5607 126.537 58.4047L128.606 46.81Z" fill="white"/>
<path d="M126.172 56.0055C126.031 55.9798 125.904 55.9031 125.816 55.79C125.728 55.6769 125.685 55.5354 125.695 55.3925C125.815 53.6923 125.489 51.9902 124.748 50.4544C124.008 48.9187 122.879 47.6025 121.473 46.636C121.408 46.5958 121.351 46.543 121.307 46.4807C121.262 46.4184 121.23 46.3478 121.213 46.2731C121.196 46.1983 121.195 46.121 121.208 46.0455C121.221 45.9701 121.25 45.8981 121.292 45.8337C121.332 45.7686 121.385 45.7121 121.447 45.6673C121.509 45.6226 121.579 45.5905 121.654 45.5729C121.729 45.5554 121.806 45.5526 121.882 45.5649C121.957 45.5772 122.03 45.6043 122.095 45.6445C123.682 46.7245 124.958 48.2015 125.794 49.9281C126.631 51.6546 126.999 53.5702 126.862 55.4833C126.857 55.5606 126.837 55.6361 126.802 55.7055C126.768 55.7749 126.72 55.8368 126.662 55.8876C126.603 55.9383 126.535 55.9768 126.461 56.001C126.388 56.0252 126.31 56.0344 126.233 56.0282L126.172 56.0055Z" fill="#26120C"/>
<path d="M121.412 51.5554C121.294 51.5342 121.185 51.477 121.1 51.3915C121.016 51.3061 120.96 51.1967 120.94 51.0782C120.92 50.9597 120.937 50.838 120.989 50.7297C121.041 50.6213 121.125 50.5317 121.23 50.4731C121.496 50.3217 123.852 49.0654 125.505 49.8147C125.646 49.8789 125.757 49.9967 125.811 50.1422C125.866 50.2877 125.861 50.4489 125.796 50.5904C125.732 50.7319 125.614 50.8421 125.468 50.8968C125.323 50.9514 125.161 50.946 125.02 50.8818C124.072 50.4504 122.375 51.177 121.799 51.4948C121.681 51.5594 121.544 51.5808 121.412 51.5554Z" fill="#26120C"/>
<path d="M148.338 45.3797C148.088 46.7798 147.247 47.8015 146.466 47.6502C145.685 47.4988 145.246 46.2652 145.496 44.865C145.746 43.4649 146.587 42.4432 147.368 42.5945C148.148 42.7459 148.588 43.9795 148.338 45.3797Z" fill="#26120C"/>
<path d="M162.207 47.5442C161.957 48.9443 161.116 49.966 160.335 49.8146C159.555 49.6633 159.115 48.4221 159.365 47.0219C159.615 45.6218 160.456 44.6001 161.237 44.7514C162.018 44.9028 162.457 46.144 162.207 47.5442Z" fill="#26120C"/>
<path d="M153.067 59.6989C149.505 59.0632 146.822 55.9829 146.785 55.9148C146.734 55.8563 146.696 55.7884 146.673 55.7152C146.649 55.642 146.64 55.5648 146.647 55.4881C146.653 55.4114 146.674 55.3367 146.71 55.2683C146.745 55.2 146.794 55.1393 146.853 55.0898C146.911 55.0394 146.978 55.0009 147.051 54.9766C147.124 54.9523 147.202 54.9427 147.278 54.9483C147.355 54.954 147.43 54.9747 147.499 55.0094C147.568 55.0441 147.629 55.092 147.679 55.1504C147.883 55.4001 152.696 60.9098 157.644 57.5419C157.773 57.4546 157.931 57.4219 158.084 57.451C158.237 57.4801 158.372 57.5686 158.459 57.6971C158.546 57.8256 158.579 57.9834 158.55 58.136C158.521 58.2886 158.432 58.4234 158.304 58.5107C157.555 59.0492 156.706 59.4319 155.806 59.636C154.907 59.8401 153.975 59.8615 153.067 59.6989Z" fill="#26120C"/>
<path d="M134.017 31.295C134.017 31.295 135.002 47.8545 130.061 48.8384C124.225 50.0039 123.778 36.9107 127.696 26.5194L134.017 31.295Z" fill="#26120C"/>
<path d="M131.545 34.6553C131.545 34.6553 155 37.9778 159.669 28.9034C159.669 28.9034 161.783 36.9788 166.936 37.4935C166.936 37.4935 170.256 28.6158 159.813 18.0353C159.813 18.0353 134.804 11.2238 128.741 21.7438C122.679 32.2638 131.545 34.6553 131.545 34.6553Z" fill="#26120C"/>
<path d="M147.657 51.6992L139.525 50.5261C138.944 50.4445 138.384 50.2489 137.879 49.9508C137.374 49.6526 136.932 49.2576 136.58 48.7885C136.228 48.3194 135.972 47.7855 135.827 47.2174C135.682 46.6492 135.651 46.0581 135.736 45.478L136.183 42.3901C136.225 42.1009 136.323 41.8227 136.473 41.5715C136.622 41.3203 136.82 41.1009 137.054 40.9259C137.288 40.7509 137.555 40.6237 137.838 40.5516C138.122 40.4795 138.417 40.4639 138.707 40.5056L151.264 42.322C151.847 42.4064 152.374 42.7181 152.727 43.1891C153.081 43.66 153.233 44.2518 153.151 44.8347L152.704 47.9226C152.621 48.5027 152.425 49.0608 152.126 49.5651C151.827 50.0693 151.432 50.5098 150.962 50.8613C150.493 51.2127 149.958 51.4683 149.39 51.6134C148.821 51.7585 148.23 51.7902 147.649 51.7067L147.657 51.6992ZM137.259 42.5415L136.812 45.6294C136.684 46.5165 136.914 47.4179 137.451 48.1359C137.988 48.8539 138.789 49.3297 139.677 49.4589L147.808 50.632C148.697 50.7597 149.599 50.5301 150.318 49.9938C151.037 49.4574 151.514 48.6581 151.643 47.7712L152.09 44.6833C152.111 44.5347 152.103 44.3834 152.066 44.2379C152.029 44.0925 151.964 43.9557 151.874 43.8355C151.783 43.7154 151.671 43.6141 151.541 43.5375C151.412 43.4609 151.269 43.4105 151.12 43.3892L138.555 41.5728H138.396C138.122 41.5729 137.857 41.6705 137.649 41.8481C137.441 42.0256 137.302 42.2714 137.259 42.5415Z" fill="#070707"/>
<path d="M163.987 54.0529L159.948 53.4702C159.367 53.3876 158.808 53.1915 158.303 52.893C157.798 52.5945 157.357 52.1996 157.005 51.7307C156.653 51.2618 156.398 50.7283 156.252 50.1606C156.107 49.5928 156.075 49.0021 156.159 48.4221L156.606 45.3342C156.648 45.045 156.746 44.7668 156.896 44.5156C157.045 44.2644 157.243 44.045 157.477 43.87C157.711 43.695 157.978 43.5678 158.261 43.4957C158.545 43.4236 158.84 43.408 159.129 43.4497L167.595 44.6758C167.884 44.7175 168.163 44.8158 168.414 44.965C168.666 45.1143 168.885 45.3116 169.061 45.5456C169.236 45.7796 169.363 46.0458 169.435 46.329C169.508 46.6122 169.523 46.9068 169.482 47.196L169.034 50.2763C168.951 50.8569 168.753 51.4152 168.453 51.9191C168.152 52.4231 167.755 52.8627 167.284 53.2129C166.517 53.7896 165.583 54.1005 164.624 54.0983C164.411 54.0979 164.198 54.0828 163.987 54.0529ZM157.682 45.4856L157.235 48.5735C157.107 49.4605 157.337 50.362 157.874 51.08C158.411 51.798 159.211 52.2738 160.1 52.403L164.139 52.9858C165.027 53.1135 165.93 52.8839 166.649 52.3475C167.368 51.8112 167.844 51.0118 167.973 50.125L168.421 47.0371C168.462 46.7373 168.383 46.4334 168.202 46.1912C168.02 45.9489 167.75 45.7879 167.451 45.7429L158.978 44.5169H158.826C158.551 44.5136 158.283 44.6099 158.073 44.7878C157.863 44.9658 157.724 45.2136 157.682 45.4856Z" fill="#070707"/>
<path d="M155.038 51.7749C154.109 51.6145 153.234 51.2271 152.491 50.6472C152.431 50.5975 152.381 50.5365 152.345 50.4676C152.308 50.3986 152.285 50.3232 152.278 50.2455C152.271 50.1679 152.279 50.0895 152.302 50.0149C152.325 49.9404 152.362 49.871 152.412 49.8109C152.461 49.7508 152.523 49.701 152.592 49.6645C152.661 49.628 152.736 49.6054 152.814 49.598C152.892 49.5906 152.97 49.5986 153.045 49.6215C153.119 49.6444 153.189 49.6818 153.249 49.7314C153.91 50.2379 154.695 50.5568 155.523 50.6548L154.598 44.8802C154.58 44.7306 154.621 44.58 154.712 44.4599C154.803 44.3398 154.938 44.2596 155.087 44.2361C155.236 44.2126 155.388 44.2477 155.512 44.3339C155.635 44.4201 155.721 44.5508 155.75 44.6985L156.796 51.1846C156.81 51.2645 156.807 51.3467 156.786 51.4251C156.765 51.5036 156.727 51.5765 156.675 51.6387C156.625 51.7013 156.563 51.7531 156.493 51.7908C156.422 51.8286 156.345 51.8515 156.265 51.8581C155.854 51.8743 155.443 51.8463 155.038 51.7749Z" fill="#26120C"/>
<path d="M157.13 45.2056L157.683 44.2822C156.924 43.7834 156.055 43.476 155.151 43.3864C154.247 43.2967 153.335 43.4276 152.492 43.7676L152.894 44.7666C153.582 44.4888 154.328 44.3836 155.067 44.4601C155.805 44.5366 156.514 44.7926 157.13 45.2056Z" fill="white"/>
<path d="M136.721 43.0032C136.847 43.0023 136.97 42.9568 137.066 42.8746C137.162 42.7925 137.227 42.679 137.248 42.5542C137.268 42.4293 137.244 42.3012 137.18 42.1922C137.115 42.0833 137.014 42.0006 136.895 41.9587C136.622 41.8604 130.173 39.6883 125.042 41.656C124.976 41.6809 124.915 41.7185 124.864 41.7667C124.812 41.815 124.771 41.8729 124.741 41.9372C124.712 42.0015 124.696 42.0709 124.694 42.1415C124.691 42.2121 124.703 42.2824 124.728 42.3485C124.753 42.4146 124.79 42.4752 124.839 42.5267C124.887 42.5783 124.945 42.6198 125.009 42.649C125.074 42.6781 125.143 42.6944 125.214 42.6967C125.285 42.699 125.355 42.6875 125.421 42.6626C130.188 40.8613 136.486 42.9578 136.546 42.9729C136.602 42.9933 136.661 43.0035 136.721 43.0032Z" fill="#070707"/>
<path d="M195.943 189.848C196.056 189.799 196.205 189.735 196.387 189.659C196.84 189.469 197.495 189.201 198.306 188.891C199.927 188.271 202.164 187.483 204.628 186.812C207.094 186.14 209.773 185.588 212.284 185.433C214.636 185.288 216.792 185.494 218.48 186.233L215.697 197.954L206.588 202.211C205.768 202.593 205.156 203.26 204.562 203.951C204.475 204.053 204.388 204.155 204.3 204.259C203.774 204.879 203.221 205.531 202.488 206.159C200.874 207.543 198.347 208.84 193.404 208.967L195.943 189.848Z" fill="white" stroke="#111111"/>
<path d="M86.2038 142.847L86.2039 142.848C87.4604 150.603 89.5212 158.206 92.3531 165.536L92.3534 165.537C93.0608 167.378 93.8594 169.199 94.6629 171.016C95.4596 172.817 96.3554 174.592 97.2849 176.35L97.2864 176.353C97.3859 176.544 97.4789 176.723 97.5778 176.892L97.5826 176.9L97.587 176.908C98.4254 178.477 99.2921 180.028 100.218 181.546L100.22 181.55C100.731 182.406 101.258 183.24 101.802 184.077L101.807 184.086L101.807 184.086L102.003 184.402L102.004 184.404L102.111 184.574L102.355 184.928L102.361 184.937L102.361 184.937C102.683 185.428 102.992 185.839 103.329 186.273C103.922 187.02 104.561 187.729 105.241 188.397L105.242 188.397C106.346 189.484 107.537 190.479 108.802 191.373L108.802 191.373C109.937 192.176 111.012 192.869 112.045 193.44L112.049 193.443C113.701 194.38 115.262 195.152 116.802 195.835L116.81 195.838L116.81 195.838C117.212 196.024 117.623 196.203 118.03 196.376C121.663 197.896 125.379 199.208 129.16 200.307L129.162 200.308C136.409 202.444 143.478 204.03 150.547 205.39C157.614 206.75 164.637 207.876 171.67 208.859C175.204 209.333 178.722 209.774 182.225 210.183L182.227 210.183C183.988 210.394 185.753 210.591 187.523 210.772L190.178 211.037L190.182 211.037L192.416 211.242L195.019 189.969L193.042 189.633L193.039 189.632L190.539 189.193L190.537 189.193L185.52 188.292L185.519 188.292C182.166 187.681 178.823 187.035 175.491 186.353C175.49 186.353 175.49 186.353 175.489 186.353L175.59 185.863C168.936 184.523 162.32 183.07 155.818 181.473C149.315 179.876 142.934 178.113 136.948 176.047L86.2038 142.847ZM86.2038 142.847C84.9531 135.175 84.3796 127.408 84.4899 119.636L86.2038 142.847ZM104.891 188.754C106.015 189.859 107.226 190.872 108.514 191.781C109.658 192.591 110.749 193.295 111.803 193.878C113.47 194.824 115.046 195.603 116.6 196.292L104.891 188.754ZM113.552 106.673C113.308 108.126 113.095 109.647 112.92 111.167L113.926 104.506C113.789 105.208 113.667 105.91 113.552 106.673Z" fill="white" stroke="#111111"/>
<path d="M178.72 186.862C178.603 186.888 178.481 186.888 178.364 186.862C147.52 179.21 126.831 170.416 125.77 169.455C125.689 169.372 125.625 169.274 125.581 169.167C124.868 167.426 108.279 126.323 110.666 109.756C110.674 109.641 110.706 109.53 110.759 109.428C110.812 109.326 110.886 109.237 110.975 109.165C111.065 109.093 111.168 109.04 111.279 109.01C111.39 108.98 111.506 108.973 111.62 108.99C111.733 109.007 111.842 109.047 111.94 109.107C112.037 109.168 112.121 109.248 112.186 109.343C112.251 109.438 112.295 109.545 112.317 109.657C112.338 109.77 112.336 109.886 112.311 109.998C110.083 125.49 125.672 164.921 127.028 168.274C129.18 169.523 149.324 177.946 178.765 185.25C178.978 185.305 179.16 185.442 179.272 185.63C179.384 185.819 179.417 186.044 179.364 186.256C179.327 186.409 179.246 186.547 179.132 186.654C179.018 186.762 178.875 186.834 178.72 186.862Z" fill="#111111"/>
<path d="M112.001 117.718C111.788 117.757 111.569 117.713 111.387 117.597C111.202 117.476 111.073 117.287 111.028 117.071C110.982 116.856 111.024 116.631 111.144 116.446L113.971 112.17C114.027 112.07 114.103 111.983 114.194 111.913C114.286 111.844 114.39 111.794 114.502 111.767C114.613 111.74 114.729 111.736 114.842 111.756C114.955 111.776 115.063 111.818 115.159 111.882C115.254 111.945 115.336 112.027 115.398 112.123C115.461 112.219 115.503 112.327 115.521 112.44C115.54 112.553 115.535 112.669 115.507 112.78C115.479 112.891 115.428 112.995 115.358 113.086L112.539 117.362C112.412 117.545 112.219 117.673 112.001 117.718Z" fill="#111111"/>
<path d="M179.805 210.672C179.717 210.683 179.627 210.683 179.539 210.672C179.428 210.662 179.319 210.631 179.22 210.578C179.121 210.526 179.033 210.454 178.962 210.367C178.891 210.28 178.839 210.18 178.808 210.072C178.777 209.965 178.768 209.852 178.782 209.741L181.669 188.035C181.683 187.927 181.719 187.823 181.774 187.729C181.828 187.635 181.901 187.552 181.987 187.486C182.074 187.42 182.173 187.372 182.278 187.344C182.383 187.316 182.493 187.309 182.601 187.323C182.709 187.338 182.813 187.373 182.907 187.428C183.002 187.483 183.084 187.555 183.15 187.642C183.216 187.728 183.265 187.827 183.293 187.932C183.321 188.037 183.328 188.147 183.313 188.254L180.434 209.953C180.413 210.122 180.342 210.281 180.23 210.409C180.118 210.537 179.97 210.629 179.805 210.672Z" fill="#111111"/>
<path d="M192.93 207.13C192.837 207.149 192.742 207.149 192.65 207.13L180.661 205.336C180.456 205.29 180.276 205.168 180.158 204.995C180.039 204.822 179.99 204.61 180.021 204.403C180.051 204.195 180.159 204.007 180.323 203.876C180.486 203.744 180.694 203.679 180.903 203.694L192.892 205.487C193.11 205.521 193.306 205.639 193.436 205.817C193.567 205.994 193.622 206.216 193.589 206.433C193.567 206.604 193.491 206.763 193.372 206.888C193.254 207.013 193.099 207.098 192.93 207.13Z" fill="#111111"/>
<path d="M189.519 198.57C189.653 198.926 189.679 199.313 189.593 199.684C189.507 200.054 189.313 200.391 189.035 200.651C188.757 200.911 188.408 201.084 188.033 201.146C187.657 201.208 187.271 201.157 186.924 201.001C186.577 200.844 186.285 200.588 186.083 200.265C185.882 199.942 185.782 199.567 185.794 199.186C185.806 198.806 185.932 198.438 186.153 198.129C186.375 197.82 186.684 197.584 187.04 197.45C187.277 197.36 187.528 197.318 187.781 197.326C188.034 197.333 188.283 197.391 188.513 197.495C188.743 197.599 188.951 197.748 189.123 197.932C189.296 198.117 189.43 198.333 189.519 198.57Z" fill="#111111"/>
</g>
<defs>
<linearGradient id="paint0_linear_219_1088" x1="158.358" y1="252.714" x2="90.0256" y2="130.106" gradientUnits="userSpaceOnUse">
<stop offset="0.0935524" stop-color="#E1694B" stop-opacity="0.96"/>
<stop offset="0.479" stop-color="#DA835D"/>
<stop offset="1" stop-color="#E1694B"/>
</linearGradient>
<clipPath id="clip0_219_1088">
<rect width="398" height="370" fill="white"/>
</clipPath>
</defs>
</svg>
